<svg xmlns="http://www.w3.org/2000/svg" xmlns:xlink="http://www.w3.org/1999/xlink" width="500" zoomAndPan="magnify" viewBox="0 0 375 374.999991" height="500" preserveAspectRatio="xMidYMid meet" version="1.2"><defs><clipPath id="4b5aaa23a2"><path d="M 88.59375 37.503906 L 286.394531 37.503906 L 286.394531 271.5 L 88.59375 271.5 Z M 88.59375 37.503906 "/></clipPath><clipPath id="83cdee60c9"><path d="M 154.5625 43.214844 C 164.671875 39.765625 176.234375 37.503906 187.546875 37.503906 C 198.863281 37.503906 209.753906 39.441406 219.785156 42.890625 C 220 43 220.214844 43 220.425781 43.105469 C 258.109375 56.898438 285.863281 93.324219 286.394531 135.679688 L 286.394531 271.367188 L 88.59375 271.367188 L 88.59375 135.78125 C 89.128906 93.109375 116.457031 56.683594 154.5625 43.214844 Z M 154.5625 43.214844 "/></clipPath><clipPath id="e36d6478e7"><path d="M 88.59375 293.308594 L 132.785156 293.308594 L 132.785156 337.5 L 88.59375 337.5 Z M 88.59375 293.308594 "/></clipPath><clipPath id="f49b25fcc7"><path d="M 110.691406 293.308594 C 98.488281 293.308594 88.59375 303.199219 88.59375 315.402344 C 88.59375 327.605469 98.488281 337.5 110.691406 337.5 C 122.894531 337.5 132.785156 327.605469 132.785156 315.402344 C 132.785156 303.199219 122.894531 293.308594 110.691406 293.308594 Z M 110.691406 293.308594 "/></clipPath><clipPath id="5ae09381c5"><path d="M 202.488281 293.308594 L 246.679688 293.308594 L 246.679688 337.5 L 202.488281 337.5 Z M 202.488281 293.308594 "/></clipPath><clipPath id="122829e39e"><path d="M 224.582031 293.308594 C 212.378906 293.308594 202.488281 303.199219 202.488281 315.402344 C 202.488281 327.605469 212.378906 337.5 224.582031 337.5 C 236.785156 337.5 246.679688 327.605469 246.679688 315.402344 C 246.679688 303.199219 236.785156 293.308594 224.582031 293.308594 Z M 224.582031 293.308594 "/></clipPath><clipPath id="d7e47d2595"><path d="M 118.933594 158.757812 L 163.125 158.757812 L 163.125 202.949219 L 118.933594 202.949219 Z M 118.933594 158.757812 "/></clipPath><clipPath id="613c996731"><path d="M 141.027344 158.757812 C 128.824219 158.757812 118.933594 168.648438 118.933594 180.851562 C 118.933594 193.054688 128.824219 202.949219 141.027344 202.949219 C 153.230469 202.949219 163.125 193.054688 163.125 180.851562 C 163.125 168.648438 153.230469 158.757812 141.027344 158.757812 Z M 141.027344 158.757812 "/></clipPath><clipPath id="2a5ce648e4"><path d="M 211.875 158.757812 L 256.066406 158.757812 L 256.066406 202.949219 L 211.875 202.949219 Z M 211.875 158.757812 "/></clipPath><clipPath id="fd1c96e254"><path d="M 233.96875 158.757812 C 221.769531 158.757812 211.875 168.648438 211.875 180.851562 C 211.875 193.054688 221.769531 202.949219 233.96875 202.949219 C 246.171875 202.949219 256.066406 193.054688 256.066406 180.851562 C 256.066406 168.648438 246.171875 158.757812 233.96875 158.757812 Z M 233.96875 158.757812 "/></clipPath></defs><g id="27de31f3a0"><g clip-rule="nonzero" clip-path="url(#4b5aaa23a2)"><g clip-rule="nonzero" clip-path="url(#83cdee60c9)"><path style="fill:none;stroke-width:26;stroke-linecap:butt;stroke-linejoin:miter;stroke:#000000;stroke-opacity:1;stroke-miterlimit:4;" d="M 87.956477 7.617037 C 101.435644 3.018078 116.852312 0.0024529 131.935646 0.0024529 C 147.024189 0.0024529 161.545023 2.585786 174.920024 7.184745 C 175.206483 7.330578 175.492941 7.330578 175.774191 7.471203 C 226.018986 25.86183 263.024197 74.429541 263.73253 130.903503 L 263.73253 311.820182 L -0.00186224 311.820182 L -0.00186224 131.03892 C 0.711679 74.143083 37.149182 25.575371 87.956477 7.617037 Z M 87.956477 7.617037 " transform="matrix(0.75,0,0,0.75,88.595147,37.502067)"/></g></g><path style="fill:none;stroke-width:11;stroke-linecap:butt;stroke-linejoin:miter;stroke:#000000;stroke-opacity:1;stroke-miterlimit:4;" d="M -0.000986915 5.49968 L 297.290701 5.49968 " transform="matrix(0,-0.74929,0.74929,0,183.37133,266.280511)"/><g clip-rule="nonzero" clip-path="url(#e36d6478e7)"><g clip-rule="nonzero" clip-path="url(#f49b25fcc7)"><path style="fill:none;stroke-width:26;stroke-linecap:butt;stroke-linejoin:miter;stroke:#000000;stroke-opacity:1;stroke-miterlimit:4;" d="M 29.461681 0.00190108 C 13.190847 0.00190108 -0.00186224 13.189402 -0.00186224 29.460236 C -0.00186224 45.731071 13.190847 58.92378 29.461681 58.92378 C 45.732516 58.92378 58.920017 45.731071 58.920017 29.460236 C 58.920017 13.189402 45.732516 0.00190108 29.461681 0.00190108 Z M 29.461681 0.00190108 " transform="matrix(0.75,0,0,0.75,88.595147,293.307168)"/></g></g><path style="fill:none;stroke-width:13;stroke-linecap:butt;stroke-linejoin:miter;stroke:#000000;stroke-opacity:1;stroke-miterlimit:4;" d="M 0.000963481 6.500302 L 58.922842 6.500302 " transform="matrix(0,0.75,-0.75,0,172.511945,293.307871)"/><g clip-rule="nonzero" clip-path="url(#5ae09381c5)"><g clip-rule="nonzero" clip-path="url(#122829e39e)"><path style="fill:none;stroke-width:26;stroke-linecap:butt;stroke-linejoin:miter;stroke:#000000;stroke-opacity:1;stroke-miterlimit:4;" d="M 29.459596 0.00190108 C 13.188761 0.00190108 0.00126033 13.189402 0.00126033 29.460236 C 0.00126033 45.731071 13.188761 58.92378 29.459596 58.92378 C 45.73043 58.92378 58.923139 45.731071 58.923139 29.460236 C 58.923139 13.189402 45.73043 0.00190108 29.459596 0.00190108 Z M 29.459596 0.00190108 " transform="matrix(0.75,0,0,0.75,202.487336,293.307168)"/></g></g><path style="fill:none;stroke-width:13;stroke-linecap:butt;stroke-linejoin:miter;stroke:#000000;stroke-opacity:1;stroke-miterlimit:4;" d="M 0.000963481 6.502378 L 58.922842 6.502378 " transform="matrix(0,0.75,-0.75,0,286.404127,293.307871)"/><path style="fill:none;stroke-width:13;stroke-linecap:butt;stroke-linejoin:miter;stroke:#000000;stroke-opacity:1;stroke-miterlimit:4;" d="M 0.000950347 6.500723 L 58.922829 6.500723 " transform="matrix(0,0.75,-0.75,0,145.902885,143.307881)"/><g clip-rule="nonzero" clip-path="url(#d7e47d2595)"><g clip-rule="nonzero" clip-path="url(#613c996731)"><path style="fill:none;stroke-width:26;stroke-linecap:butt;stroke-linejoin:miter;stroke:#000000;stroke-opacity:1;stroke-miterlimit:4;" d="M 29.460215 0.000847633 C 13.189381 0.000847633 0.00187981 13.188348 0.00187981 29.459183 C 0.00187981 45.730017 13.189381 58.922727 29.460215 58.922727 C 45.731049 58.922727 58.923759 45.730017 58.923759 29.459183 C 58.923759 13.188348 45.731049 0.000847633 29.460215 0.000847633 Z M 29.460215 0.000847633 " transform="matrix(0.75,0,0,0.75,118.932184,158.757177)"/></g></g><path style="fill:none;stroke-width:13;stroke-linecap:butt;stroke-linejoin:miter;stroke:#000000;stroke-opacity:1;stroke-miterlimit:4;" d="M 0.000950347 6.50259 L 58.922829 6.50259 " transform="matrix(0,0.75,-0.75,0,238.845692,143.307881)"/><g clip-rule="nonzero" clip-path="url(#2a5ce648e4)"><g clip-rule="nonzero" clip-path="url(#fd1c96e254)"><path style="fill:none;stroke-width:26;stroke-linecap:butt;stroke-linejoin:miter;stroke:#000000;stroke-opacity:1;stroke-miterlimit:4;" d="M 29.458348 0.000847633 C 13.187513 0.000847633 0.0000125508 13.188348 0.0000125508 29.459183 C 0.0000125508 45.730017 13.187513 58.922727 29.458348 58.922727 C 45.729182 58.922727 58.921891 45.730017 58.921891 29.459183 C 58.921891 13.188348 45.729182 0.000847633 29.458348 0.000847633 Z M 29.458348 0.000847633 " transform="matrix(0.75,0,0,0.75,211.874991,158.757177)"/></g></g></g></svg>