<svg xmlns="http://www.w3.org/2000/svg" xmlns:xlink="http://www.w3.org/1999/xlink" width="700" zoomAndPan="magnify" viewBox="0 0 525.12 157.92" height="200" preserveAspectRatio="xMidYMid meet" version="1.2"><defs><clipPath id="6204408a79"><path d="M 40.5625 25.050781 L 140.144531 25.050781 L 140.144531 124.632812 L 40.5625 124.632812 Z M 40.5625 25.050781 "/></clipPath><clipPath id="915ce17848"><path d="M 90.355469 25.050781 C 62.855469 25.050781 40.5625 47.34375 40.5625 74.84375 C 40.5625 102.339844 62.855469 124.632812 90.355469 124.632812 C 117.855469 124.632812 140.144531 102.339844 140.144531 74.84375 C 140.144531 47.34375 117.855469 25.050781 90.355469 25.050781 Z M 90.355469 25.050781 "/></clipPath><clipPath id="c28656e239"><path d="M 295.128906 25.050781 L 394.710938 25.050781 L 394.710938 124.632812 L 295.128906 124.632812 Z M 295.128906 25.050781 "/></clipPath><clipPath id="6c1c68f67b"><path d="M 344.917969 25.050781 C 317.421875 25.050781 295.128906 47.34375 295.128906 74.84375 C 295.128906 102.339844 317.421875 124.632812 344.917969 124.632812 C 372.417969 124.632812 394.710938 102.339844 394.710938 74.84375 C 394.710938 47.34375 372.417969 25.050781 344.917969 25.050781 Z M 344.917969 25.050781 "/></clipPath></defs><g id="f87542432c"><g clip-rule="nonzero" clip-path="url(#6204408a79)"><g clip-rule="nonzero" clip-path="url(#915ce17848)"><path style="fill:none;stroke-width:60;stroke-linecap:butt;stroke-linejoin:miter;stroke:#000000;stroke-opacity:1;stroke-miterlimit:4;" d="M 66.665023 0.000587395 C 29.846296 0.000587395 -0.000929445 29.847813 -0.000929445 66.66654 C -0.000929445 103.480036 29.846296 133.327262 66.665023 133.327262 C 103.483749 133.327262 133.325745 103.480036 133.325745 66.66654 C 133.325745 29.847813 103.483749 0.000587395 66.665023 0.000587395 Z M 66.665023 0.000587395 " transform="matrix(0.746903,0,0,0.746903,40.563194,25.050343)"/></g></g><g clip-rule="nonzero" clip-path="url(#c28656e239)"><g clip-rule="nonzero" clip-path="url(#6c1c68f67b)"><path style="fill:none;stroke-width:60;stroke-linecap:butt;stroke-linejoin:miter;stroke:#000000;stroke-opacity:1;stroke-miterlimit:4;" d="M 66.661481 0.000587395 C 29.847984 0.000587395 0.000758377 29.847813 0.000758377 66.66654 C 0.000758377 103.480036 29.847984 133.327262 66.661481 133.327262 C 103.480207 133.327262 133.327433 103.480036 133.327433 66.66654 C 133.327433 29.847813 103.480207 0.000587395 66.661481 0.000587395 Z M 66.661481 0.000587395 " transform="matrix(0.746903,0,0,0.746903,295.12834,25.050343)"/></g></g><path style="fill:none;stroke-width:30;stroke-linecap:butt;stroke-linejoin:miter;stroke:#000000;stroke-opacity:1;stroke-miterlimit:4;" d="M -0.00230634 15.002485 L 133.334828 15.002485 " transform="matrix(0,-0.746903,0.746903,0,206.528981,124.88109)"/><path style="fill:none;stroke-width:30;stroke-linecap:butt;stroke-linejoin:miter;stroke:#000000;stroke-opacity:1;stroke-miterlimit:4;" d="M -0.00230634 14.998914 L 133.334828 14.998914 " transform="matrix(0,-0.746903,0.746903,0,461.094148,124.88109)"/></g></svg>