<svg xmlns="http://www.w3.org/2000/svg" xmlns:xlink="http://www.w3.org/1999/xlink" width="265" zoomAndPan="magnify" viewBox="0 0 198.75 159.000002" height="212" preserveAspectRatio="xMidYMid meet" version="1.0"><defs><g/><clipPath id="c398f55db1"><path d="M 32.863281 0.0820312 L 165.265625 0.0820312 L 165.265625 157.179688 L 32.863281 157.179688 Z M 32.863281 0.0820312 " clip-rule="nonzero"/></clipPath><clipPath id="3c9b4a5c00"><path d="M 77.039062 3.800781 C 83.808594 1.554688 91.550781 0.0820312 99.128906 0.0820312 C 106.703125 0.0820312 113.996094 1.34375 120.714844 3.589844 C 120.859375 3.660156 121 3.660156 121.144531 3.730469 C 146.378906 12.710938 164.960938 36.433594 165.320312 64.125 L 165.320312 157.179688 L 32.863281 157.179688 L 32.863281 64.191406 C 33.222656 36.292969 51.519531 12.574219 77.039062 3.800781 Z M 77.039062 3.800781 " clip-rule="nonzero"/></clipPath></defs><g clip-path="url(#c398f55db1)"><g clip-path="url(#3c9b4a5c00)"><path stroke-linecap="butt" transform="matrix(0.131093, 0, 0, 0.130917, 32.863353, 0.0802489)" fill="none" stroke-linejoin="miter" d="M 336.981125 28.418915 C 388.620459 11.262352 447.679409 0.0136143 505.486858 0.0136143 C 563.264509 0.0136143 618.89673 9.651127 670.148694 26.80769 C 671.251208 27.344765 672.323923 27.344765 673.426436 27.88184 C 865.919282 96.478254 1007.666722 277.681396 1010.408106 489.199439 L 1010.408106 1199.988382 L -0.000544945 1199.988382 L -0.000544945 489.706677 C 2.740839 276.607246 142.313051 95.433942 336.981125 28.418915 Z M 336.981125 28.418915 " stroke="#000000" stroke-width="98" stroke-opacity="1" stroke-miterlimit="4"/></g></g><path stroke-linecap="butt" transform="matrix(0, -0.130917, 0.131093, 0, 96.394659, 153.137833)" fill="none" stroke-linejoin="miter" d="M 0.00851179 20.499814 L 1138.249491 20.499814 " stroke="#000000" stroke-width="41" stroke-opacity="1" stroke-miterlimit="4"/><path fill="#faf4f1" d="M 16.699219 72.617188 L 181.550781 72.617188 C 185.761719 72.617188 189.179688 76.035156 189.179688 80.246094 L 189.179688 95.507812 C 189.179688 99.71875 185.761719 103.136719 181.550781 103.136719 L 16.699219 103.136719 C 12.484375 103.136719 9.066406 99.71875 9.066406 95.507812 L 9.066406 80.246094 C 9.066406 76.035156 12.484375 72.617188 16.699219 72.617188 Z M 16.699219 72.617188 " fill-opacity="1" fill-rule="nonzero"/><g fill="#000000" fill-opacity="1"><g transform="translate(17.971846, 92.721313)"><g><path d="M 3.328125 -9.296875 L 3.328125 -6.515625 L 7.0625 -6.515625 L 7.0625 -4.75 L 3.328125 -4.75 L 3.328125 -1.8125 L 7.53125 -1.8125 L 7.53125 0 L 1.09375 0 L 1.09375 -11.109375 L 7.53125 -11.109375 L 7.53125 -9.296875 Z M 3.328125 -9.296875 "/></g></g></g><g fill="#000000" fill-opacity="1"><g transform="translate(26.428611, 92.721313)"><g><path d="M 10.578125 0 L 8.359375 0 L 3.328125 -7.609375 L 3.328125 0 L 1.09375 0 L 1.09375 -11.109375 L 3.328125 -11.109375 L 8.359375 -3.484375 L 8.359375 -11.109375 L 10.578125 -11.109375 Z M 10.578125 0 "/></g></g></g><g fill="#000000" fill-opacity="1"><g transform="translate(38.112307, 92.721313)"><g><path d="M 8.640625 -11.09375 L 8.640625 -9.296875 L 5.6875 -9.296875 L 5.6875 0 L 3.46875 0 L 3.46875 -9.296875 L 0.515625 -9.296875 L 0.515625 -11.09375 Z M 8.640625 -11.09375 "/></g></g></g><g fill="#000000" fill-opacity="1"><g transform="translate(47.284407, 92.721313)"><g><path d="M 6.8125 0 L 4.375 -4.328125 L 3.328125 -4.328125 L 3.328125 0 L 1.09375 0 L 1.09375 -11.09375 L 5.265625 -11.09375 C 6.117188 -11.09375 6.847656 -10.941406 7.453125 -10.640625 C 8.054688 -10.335938 8.507812 -9.925781 8.8125 -9.40625 C 9.113281 -8.894531 9.265625 -8.320312 9.265625 -7.6875 C 9.265625 -6.957031 9.050781 -6.296875 8.625 -5.703125 C 8.207031 -5.117188 7.578125 -4.71875 6.734375 -4.5 L 9.390625 0 Z M 3.328125 -5.984375 L 5.1875 -5.984375 C 5.789062 -5.984375 6.238281 -6.128906 6.53125 -6.421875 C 6.820312 -6.710938 6.96875 -7.117188 6.96875 -7.640625 C 6.96875 -8.148438 6.820312 -8.546875 6.53125 -8.828125 C 6.238281 -9.109375 5.789062 -9.25 5.1875 -9.25 L 3.328125 -9.25 Z M 3.328125 -5.984375 "/></g></g></g><g fill="#000000" fill-opacity="1"><g transform="translate(57.473862, 92.721313)"><g><path d="M 7.890625 -2.109375 L 3.484375 -2.109375 L 2.75 0 L 0.40625 0 L 4.40625 -11.109375 L 6.984375 -11.109375 L 10.984375 0 L 8.625 0 Z M 7.296875 -3.890625 L 5.6875 -8.53125 L 4.078125 -3.890625 Z M 7.296875 -3.890625 "/></g></g></g><g fill="#000000" fill-opacity="1"><g transform="translate(68.855526, 92.721313)"><g/></g></g><g fill="#000000" fill-opacity="1"><g transform="translate(72.638814, 92.721313)"><g><path d="M 3.328125 -11.09375 L 3.328125 0 L 1.09375 0 L 1.09375 -11.09375 Z M 3.328125 -11.09375 "/></g></g></g><g fill="#000000" fill-opacity="1"><g transform="translate(77.057955, 92.721313)"><g><path d="M 10.578125 0 L 8.359375 0 L 3.328125 -7.609375 L 3.328125 0 L 1.09375 0 L 1.09375 -11.109375 L 3.328125 -11.109375 L 8.359375 -3.484375 L 8.359375 -11.109375 L 10.578125 -11.109375 Z M 10.578125 0 "/></g></g></g><g fill="#000000" fill-opacity="1"><g transform="translate(88.741651, 92.721313)"><g/></g></g><g fill="#000000" fill-opacity="1"><g transform="translate(92.52494, 92.721313)"><g><path d="M 0.5625 -5.5625 C 0.5625 -6.65625 0.804688 -7.628906 1.296875 -8.484375 C 1.785156 -9.347656 2.457031 -10.019531 3.3125 -10.5 C 4.164062 -10.988281 5.125 -11.234375 6.1875 -11.234375 C 7.425781 -11.234375 8.507812 -10.914062 9.4375 -10.28125 C 10.375 -9.644531 11.023438 -8.765625 11.390625 -7.640625 L 8.828125 -7.640625 C 8.578125 -8.171875 8.222656 -8.566406 7.765625 -8.828125 C 7.304688 -9.097656 6.773438 -9.234375 6.171875 -9.234375 C 5.523438 -9.234375 4.945312 -9.082031 4.4375 -8.78125 C 3.9375 -8.476562 3.546875 -8.050781 3.265625 -7.5 C 2.984375 -6.945312 2.84375 -6.300781 2.84375 -5.5625 C 2.84375 -4.832031 2.984375 -4.1875 3.265625 -3.625 C 3.546875 -3.070312 3.9375 -2.644531 4.4375 -2.34375 C 4.945312 -2.039062 5.523438 -1.890625 6.171875 -1.890625 C 6.773438 -1.890625 7.304688 -2.023438 7.765625 -2.296875 C 8.222656 -2.566406 8.578125 -2.96875 8.828125 -3.5 L 11.390625 -3.5 C 11.023438 -2.363281 10.378906 -1.476562 9.453125 -0.84375 C 8.523438 -0.21875 7.4375 0.09375 6.1875 0.09375 C 5.125 0.09375 4.164062 -0.144531 3.3125 -0.625 C 2.457031 -1.101562 1.785156 -1.769531 1.296875 -2.625 C 0.804688 -3.488281 0.5625 -4.46875 0.5625 -5.5625 Z M 0.5625 -5.5625 "/></g></g></g><g fill="#000000" fill-opacity="1"><g transform="translate(104.733208, 92.721313)"><g><path d="M 6.25 0.109375 C 5.207031 0.109375 4.25 -0.128906 3.375 -0.609375 C 2.507812 -1.097656 1.820312 -1.773438 1.3125 -2.640625 C 0.8125 -3.503906 0.5625 -4.484375 0.5625 -5.578125 C 0.5625 -6.660156 0.8125 -7.628906 1.3125 -8.484375 C 1.820312 -9.347656 2.507812 -10.023438 3.375 -10.515625 C 4.25 -11.003906 5.207031 -11.25 6.25 -11.25 C 7.289062 -11.25 8.242188 -11.003906 9.109375 -10.515625 C 9.972656 -10.023438 10.65625 -9.347656 11.15625 -8.484375 C 11.664062 -7.628906 11.921875 -6.660156 11.921875 -5.578125 C 11.921875 -4.484375 11.664062 -3.503906 11.15625 -2.640625 C 10.65625 -1.773438 9.96875 -1.097656 9.09375 -0.609375 C 8.226562 -0.128906 7.28125 0.109375 6.25 0.109375 Z M 6.25 -1.875 C 6.914062 -1.875 7.5 -2.023438 8 -2.328125 C 8.507812 -2.628906 8.90625 -3.0625 9.1875 -3.625 C 9.476562 -4.1875 9.625 -4.835938 9.625 -5.578125 C 9.625 -6.316406 9.476562 -6.960938 9.1875 -7.515625 C 8.90625 -8.078125 8.507812 -8.503906 8 -8.796875 C 7.5 -9.097656 6.914062 -9.25 6.25 -9.25 C 5.582031 -9.25 4.988281 -9.097656 4.46875 -8.796875 C 3.957031 -8.503906 3.554688 -8.078125 3.265625 -7.515625 C 2.984375 -6.960938 2.84375 -6.316406 2.84375 -5.578125 C 2.84375 -4.835938 2.984375 -4.1875 3.265625 -3.625 C 3.554688 -3.0625 3.957031 -2.628906 4.46875 -2.328125 C 4.988281 -2.023438 5.582031 -1.875 6.25 -1.875 Z M 6.25 -1.875 "/></g></g></g><g fill="#000000" fill-opacity="1"><g transform="translate(117.21171, 92.721313)"><g><path d="M 10.578125 0 L 8.359375 0 L 3.328125 -7.609375 L 3.328125 0 L 1.09375 0 L 1.09375 -11.109375 L 3.328125 -11.109375 L 8.359375 -3.484375 L 8.359375 -11.109375 L 10.578125 -11.109375 Z M 10.578125 0 "/></g></g></g><g fill="#000000" fill-opacity="1"><g transform="translate(128.895407, 92.721313)"><g><path d="M 8.640625 -11.09375 L 8.640625 -9.296875 L 5.6875 -9.296875 L 5.6875 0 L 3.46875 0 L 3.46875 -9.296875 L 0.515625 -9.296875 L 0.515625 -11.09375 Z M 8.640625 -11.09375 "/></g></g></g><g fill="#000000" fill-opacity="1"><g transform="translate(138.067506, 92.721313)"><g><path d="M 7.890625 -2.109375 L 3.484375 -2.109375 L 2.75 0 L 0.40625 0 L 4.40625 -11.109375 L 6.984375 -11.109375 L 10.984375 0 L 8.625 0 Z M 7.296875 -3.890625 L 5.6875 -8.53125 L 4.078125 -3.890625 Z M 7.296875 -3.890625 "/></g></g></g><g fill="#000000" fill-opacity="1"><g transform="translate(149.44917, 92.721313)"><g><path d="M 8.640625 -11.09375 L 8.640625 -9.296875 L 5.6875 -9.296875 L 5.6875 0 L 3.46875 0 L 3.46875 -9.296875 L 0.515625 -9.296875 L 0.515625 -11.09375 Z M 8.640625 -11.09375 "/></g></g></g><g fill="#000000" fill-opacity="1"><g transform="translate(158.621269, 92.721313)"><g><path d="M 8.640625 -11.09375 L 8.640625 -9.296875 L 5.6875 -9.296875 L 5.6875 0 L 3.46875 0 L 3.46875 -9.296875 L 0.515625 -9.296875 L 0.515625 -11.09375 Z M 8.640625 -11.09375 "/></g></g></g><g fill="#000000" fill-opacity="1"><g transform="translate(167.793369, 92.721313)"><g><path d="M 6.25 0.109375 C 5.207031 0.109375 4.25 -0.128906 3.375 -0.609375 C 2.507812 -1.097656 1.820312 -1.773438 1.3125 -2.640625 C 0.8125 -3.503906 0.5625 -4.484375 0.5625 -5.578125 C 0.5625 -6.660156 0.8125 -7.628906 1.3125 -8.484375 C 1.820312 -9.347656 2.507812 -10.023438 3.375 -10.515625 C 4.25 -11.003906 5.207031 -11.25 6.25 -11.25 C 7.289062 -11.25 8.242188 -11.003906 9.109375 -10.515625 C 9.972656 -10.023438 10.65625 -9.347656 11.15625 -8.484375 C 11.664062 -7.628906 11.921875 -6.660156 11.921875 -5.578125 C 11.921875 -4.484375 11.664062 -3.503906 11.15625 -2.640625 C 10.65625 -1.773438 9.96875 -1.097656 9.09375 -0.609375 C 8.226562 -0.128906 7.28125 0.109375 6.25 0.109375 Z M 6.25 -1.875 C 6.914062 -1.875 7.5 -2.023438 8 -2.328125 C 8.507812 -2.628906 8.90625 -3.0625 9.1875 -3.625 C 9.476562 -4.1875 9.625 -4.835938 9.625 -5.578125 C 9.625 -6.316406 9.476562 -6.960938 9.1875 -7.515625 C 8.90625 -8.078125 8.507812 -8.503906 8 -8.796875 C 7.5 -9.097656 6.914062 -9.25 6.25 -9.25 C 5.582031 -9.25 4.988281 -9.097656 4.46875 -8.796875 C 3.957031 -8.503906 3.554688 -8.078125 3.265625 -7.515625 C 2.984375 -6.960938 2.84375 -6.316406 2.84375 -5.578125 C 2.84375 -4.835938 2.984375 -4.1875 3.265625 -3.625 C 3.554688 -3.0625 3.957031 -2.628906 4.46875 -2.328125 C 4.988281 -2.023438 5.582031 -1.875 6.25 -1.875 Z M 6.25 -1.875 "/></g></g></g></svg>