<svg xmlns="http://www.w3.org/2000/svg" xmlns:xlink="http://www.w3.org/1999/xlink" width="262" zoomAndPan="magnify" viewBox="0 0 196.5 159.000002" height="212" preserveAspectRatio="xMidYMid meet" version="1.0"><defs><g/><clipPath id="a614267dfe"><path d="M 31.632812 0.0820312 L 164.039062 0.0820312 L 164.039062 157.179688 L 31.632812 157.179688 Z M 31.632812 0.0820312 " clip-rule="nonzero"/></clipPath><clipPath id="b9dc7b26b0"><path d="M 75.8125 3.800781 C 82.578125 1.554688 90.320312 0.0820312 97.898438 0.0820312 C 105.476562 0.0820312 112.765625 1.34375 119.488281 3.589844 C 119.628906 3.660156 119.773438 3.660156 119.914062 3.730469 C 145.148438 12.710938 163.734375 36.433594 164.089844 64.125 L 164.089844 157.179688 L 31.632812 157.179688 L 31.632812 64.191406 C 31.992188 36.292969 50.292969 12.574219 75.8125 3.800781 Z M 75.8125 3.800781 " clip-rule="nonzero"/></clipPath></defs><g clip-path="url(#a614267dfe)"><g clip-path="url(#b9dc7b26b0)"><path stroke-linecap="butt" transform="matrix(0.131093, 0, 0, 0.130917, 31.634619, 0.0802489)" fill="none" stroke-linejoin="miter" d="M 336.997685 28.418915 C 388.607222 11.262352 447.666172 0.0136143 505.473621 0.0136143 C 563.28107 0.0136143 618.883492 9.651127 670.165255 26.80769 C 671.237971 27.344765 672.340484 27.344765 673.413199 27.88184 C 865.906044 96.478254 1007.683282 277.681396 1010.394869 489.199439 L 1010.394869 1199.988382 L -0.0137821 1199.988382 L -0.0137821 489.706677 C 2.727602 276.607246 142.329611 95.433942 336.997685 28.418915 Z M 336.997685 28.418915 " stroke="#000000" stroke-width="98" stroke-opacity="1" stroke-miterlimit="4"/></g></g><path stroke-linecap="butt" transform="matrix(0, -0.130917, 0.131093, 0, 95.16592, 153.137833)" fill="none" stroke-linejoin="miter" d="M 0.00851179 20.486617 L 1138.249491 20.486617 " stroke="#000000" stroke-width="41" stroke-opacity="1" stroke-miterlimit="4"/><path fill="#faf4f1" d="M 17.125 72.617188 L 178.671875 72.617188 C 182.882812 72.617188 186.300781 76.035156 186.300781 80.246094 L 186.300781 95.507812 C 186.300781 99.71875 182.882812 103.136719 178.671875 103.136719 L 17.125 103.136719 C 12.910156 103.136719 9.496094 99.71875 9.496094 95.507812 L 9.496094 80.246094 C 9.496094 76.035156 12.910156 72.617188 17.125 72.617188 Z M 17.125 72.617188 " fill-opacity="1" fill-rule="nonzero"/><g fill="#000000" fill-opacity="1"><g transform="translate(18.39958, 92.721313)"><g><path d="M 11.0625 -11.09375 L 6.984375 0 L 4.296875 0 L 0.21875 -11.09375 L 2.609375 -11.09375 L 5.65625 -2.265625 L 8.6875 -11.09375 Z M 11.0625 -11.09375 "/></g></g></g><g fill="#000000" fill-opacity="1"><g transform="translate(29.701761, 92.721313)"><g><path d="M 7.890625 -2.109375 L 3.484375 -2.109375 L 2.75 0 L 0.40625 0 L 4.40625 -11.109375 L 6.984375 -11.109375 L 10.984375 0 L 8.625 0 Z M 7.296875 -3.890625 L 5.6875 -8.53125 L 4.078125 -3.890625 Z M 7.296875 -3.890625 "/></g></g></g><g fill="#000000" fill-opacity="1"><g transform="translate(41.083425, 92.721313)"><g><path d="M 3.328125 -11.09375 L 3.328125 0 L 1.09375 0 L 1.09375 -11.09375 Z M 3.328125 -11.09375 "/></g></g></g><g fill="#000000" fill-opacity="1"><g transform="translate(45.502565, 92.721313)"><g/></g></g><g fill="#000000" fill-opacity="1"><g transform="translate(49.285854, 92.721313)"><g><path d="M 7.890625 -2.109375 L 3.484375 -2.109375 L 2.75 0 L 0.40625 0 L 4.40625 -11.109375 L 6.984375 -11.109375 L 10.984375 0 L 8.625 0 Z M 7.296875 -3.890625 L 5.6875 -8.53125 L 4.078125 -3.890625 Z M 7.296875 -3.890625 "/></g></g></g><g fill="#000000" fill-opacity="1"><g transform="translate(60.667518, 92.721313)"><g><path d="M 3.328125 -1.765625 L 6.96875 -1.765625 L 6.96875 0 L 1.09375 0 L 1.09375 -11.09375 L 3.328125 -11.09375 Z M 3.328125 -1.765625 "/></g></g></g><g fill="#000000" fill-opacity="1"><g transform="translate(67.963861, 92.721313)"><g><path d="M 3.328125 -1.765625 L 6.96875 -1.765625 L 6.96875 0 L 1.09375 0 L 1.09375 -11.09375 L 3.328125 -11.09375 Z M 3.328125 -1.765625 "/></g></g></g><g fill="#000000" fill-opacity="1"><g transform="translate(75.260203, 92.721313)"><g><path d="M 3.328125 -9.296875 L 3.328125 -6.515625 L 7.0625 -6.515625 L 7.0625 -4.75 L 3.328125 -4.75 L 3.328125 -1.8125 L 7.53125 -1.8125 L 7.53125 0 L 1.09375 0 L 1.09375 -11.109375 L 7.53125 -11.109375 L 7.53125 -9.296875 Z M 3.328125 -9.296875 "/></g></g></g><g fill="#000000" fill-opacity="1"><g transform="translate(83.716968, 92.721313)"><g/></g></g><g fill="#000000" fill-opacity="1"><g transform="translate(87.500257, 92.721313)"><g><path d="M 0.5625 -5.5625 C 0.5625 -6.65625 0.804688 -7.628906 1.296875 -8.484375 C 1.785156 -9.347656 2.457031 -10.019531 3.3125 -10.5 C 4.164062 -10.988281 5.125 -11.234375 6.1875 -11.234375 C 7.425781 -11.234375 8.507812 -10.914062 9.4375 -10.28125 C 10.375 -9.644531 11.023438 -8.765625 11.390625 -7.640625 L 8.828125 -7.640625 C 8.578125 -8.171875 8.222656 -8.566406 7.765625 -8.828125 C 7.304688 -9.097656 6.773438 -9.234375 6.171875 -9.234375 C 5.523438 -9.234375 4.945312 -9.082031 4.4375 -8.78125 C 3.9375 -8.476562 3.546875 -8.050781 3.265625 -7.5 C 2.984375 -6.945312 2.84375 -6.300781 2.84375 -5.5625 C 2.84375 -4.832031 2.984375 -4.1875 3.265625 -3.625 C 3.546875 -3.070312 3.9375 -2.644531 4.4375 -2.34375 C 4.945312 -2.039062 5.523438 -1.890625 6.171875 -1.890625 C 6.773438 -1.890625 7.304688 -2.023438 7.765625 -2.296875 C 8.222656 -2.566406 8.578125 -2.96875 8.828125 -3.5 L 11.390625 -3.5 C 11.023438 -2.363281 10.378906 -1.476562 9.453125 -0.84375 C 8.523438 -0.21875 7.4375 0.09375 6.1875 0.09375 C 5.125 0.09375 4.164062 -0.144531 3.3125 -0.625 C 2.457031 -1.101562 1.785156 -1.769531 1.296875 -2.625 C 0.804688 -3.488281 0.5625 -4.46875 0.5625 -5.5625 Z M 0.5625 -5.5625 "/></g></g></g><g fill="#000000" fill-opacity="1"><g transform="translate(99.708524, 92.721313)"><g><path d="M 6.25 0.109375 C 5.207031 0.109375 4.25 -0.128906 3.375 -0.609375 C 2.507812 -1.097656 1.820312 -1.773438 1.3125 -2.640625 C 0.8125 -3.503906 0.5625 -4.484375 0.5625 -5.578125 C 0.5625 -6.660156 0.8125 -7.628906 1.3125 -8.484375 C 1.820312 -9.347656 2.507812 -10.023438 3.375 -10.515625 C 4.25 -11.003906 5.207031 -11.25 6.25 -11.25 C 7.289062 -11.25 8.242188 -11.003906 9.109375 -10.515625 C 9.972656 -10.023438 10.65625 -9.347656 11.15625 -8.484375 C 11.664062 -7.628906 11.921875 -6.660156 11.921875 -5.578125 C 11.921875 -4.484375 11.664062 -3.503906 11.15625 -2.640625 C 10.65625 -1.773438 9.96875 -1.097656 9.09375 -0.609375 C 8.226562 -0.128906 7.28125 0.109375 6.25 0.109375 Z M 6.25 -1.875 C 6.914062 -1.875 7.5 -2.023438 8 -2.328125 C 8.507812 -2.628906 8.90625 -3.0625 9.1875 -3.625 C 9.476562 -4.1875 9.625 -4.835938 9.625 -5.578125 C 9.625 -6.316406 9.476562 -6.960938 9.1875 -7.515625 C 8.90625 -8.078125 8.507812 -8.503906 8 -8.796875 C 7.5 -9.097656 6.914062 -9.25 6.25 -9.25 C 5.582031 -9.25 4.988281 -9.097656 4.46875 -8.796875 C 3.957031 -8.503906 3.554688 -8.078125 3.265625 -7.515625 C 2.984375 -6.960938 2.84375 -6.316406 2.84375 -5.578125 C 2.84375 -4.835938 2.984375 -4.1875 3.265625 -3.625 C 3.554688 -3.0625 3.957031 -2.628906 4.46875 -2.328125 C 4.988281 -2.023438 5.582031 -1.875 6.25 -1.875 Z M 6.25 -1.875 "/></g></g></g><g fill="#000000" fill-opacity="1"><g transform="translate(112.187027, 92.721313)"><g><path d="M 3.328125 -1.765625 L 6.96875 -1.765625 L 6.96875 0 L 1.09375 0 L 1.09375 -11.09375 L 3.328125 -11.09375 Z M 3.328125 -1.765625 "/></g></g></g><g fill="#000000" fill-opacity="1"><g transform="translate(119.483369, 92.721313)"><g><path d="M 3.328125 -1.765625 L 6.96875 -1.765625 L 6.96875 0 L 1.09375 0 L 1.09375 -11.09375 L 3.328125 -11.09375 Z M 3.328125 -1.765625 "/></g></g></g><g fill="#000000" fill-opacity="1"><g transform="translate(126.779712, 92.721313)"><g><path d="M 3.328125 -9.296875 L 3.328125 -6.515625 L 7.0625 -6.515625 L 7.0625 -4.75 L 3.328125 -4.75 L 3.328125 -1.8125 L 7.53125 -1.8125 L 7.53125 0 L 1.09375 0 L 1.09375 -11.109375 L 7.53125 -11.109375 L 7.53125 -9.296875 Z M 3.328125 -9.296875 "/></g></g></g><g fill="#000000" fill-opacity="1"><g transform="translate(135.236477, 92.721313)"><g><path d="M 3.375 -1.875 L 8.359375 -1.875 L 8.359375 0 L 0.796875 0 L 0.796875 -1.71875 L 5.75 -9.21875 L 0.796875 -9.21875 L 0.796875 -11.09375 L 8.359375 -11.09375 L 8.359375 -9.375 Z M 3.375 -1.875 "/></g></g></g><g fill="#000000" fill-opacity="1"><g transform="translate(144.392678, 92.721313)"><g><path d="M 3.328125 -11.09375 L 3.328125 0 L 1.09375 0 L 1.09375 -11.09375 Z M 3.328125 -11.09375 "/></g></g></g><g fill="#000000" fill-opacity="1"><g transform="translate(148.811818, 92.721313)"><g><path d="M 6.25 0.109375 C 5.207031 0.109375 4.25 -0.128906 3.375 -0.609375 C 2.507812 -1.097656 1.820312 -1.773438 1.3125 -2.640625 C 0.8125 -3.503906 0.5625 -4.484375 0.5625 -5.578125 C 0.5625 -6.660156 0.8125 -7.628906 1.3125 -8.484375 C 1.820312 -9.347656 2.507812 -10.023438 3.375 -10.515625 C 4.25 -11.003906 5.207031 -11.25 6.25 -11.25 C 7.289062 -11.25 8.242188 -11.003906 9.109375 -10.515625 C 9.972656 -10.023438 10.65625 -9.347656 11.15625 -8.484375 C 11.664062 -7.628906 11.921875 -6.660156 11.921875 -5.578125 C 11.921875 -4.484375 11.664062 -3.503906 11.15625 -2.640625 C 10.65625 -1.773438 9.96875 -1.097656 9.09375 -0.609375 C 8.226562 -0.128906 7.28125 0.109375 6.25 0.109375 Z M 6.25 -1.875 C 6.914062 -1.875 7.5 -2.023438 8 -2.328125 C 8.507812 -2.628906 8.90625 -3.0625 9.1875 -3.625 C 9.476562 -4.1875 9.625 -4.835938 9.625 -5.578125 C 9.625 -6.316406 9.476562 -6.960938 9.1875 -7.515625 C 8.90625 -8.078125 8.507812 -8.503906 8 -8.796875 C 7.5 -9.097656 6.914062 -9.25 6.25 -9.25 C 5.582031 -9.25 4.988281 -9.097656 4.46875 -8.796875 C 3.957031 -8.503906 3.554688 -8.078125 3.265625 -7.515625 C 2.984375 -6.960938 2.84375 -6.316406 2.84375 -5.578125 C 2.84375 -4.835938 2.984375 -4.1875 3.265625 -3.625 C 3.554688 -3.0625 3.957031 -2.628906 4.46875 -2.328125 C 4.988281 -2.023438 5.582031 -1.875 6.25 -1.875 Z M 6.25 -1.875 "/></g></g></g><g fill="#000000" fill-opacity="1"><g transform="translate(161.29032, 92.721313)"><g><path d="M 10.578125 0 L 8.359375 0 L 3.328125 -7.609375 L 3.328125 0 L 1.09375 0 L 1.09375 -11.109375 L 3.328125 -11.109375 L 8.359375 -3.484375 L 8.359375 -11.109375 L 10.578125 -11.109375 Z M 10.578125 0 "/></g></g></g><g fill="#000000" fill-opacity="1"><g transform="translate(172.974017, 92.721313)"><g><path d="M 3.328125 -11.09375 L 3.328125 0 L 1.09375 0 L 1.09375 -11.09375 Z M 3.328125 -11.09375 "/></g></g></g></svg>